# xmcd CD database file
#
# Track frame offsets:
#	150
#	20898
#	34199
#	47933
#	65564
#	80423
#	93860
#	115455
#	138186
#	157565
#	178891
#	197035
#	213632
#	229892
#	249823
#	274213
#	289713
#	312904
#	333564
#
# Disc length: 4718 seconds
#
# Revision: 0
# Processed by: cddbd v1.5.1PL0 Copyright (c) Steve Scherf et al.
# Submitted via: CDex 1.51
#
DISCID=16126c13
DTITLE=salseros de coyuca - lo mejor de la salsa
DYEAR=2004
DGENRE=Salsa
TTITLE0=pa´la paloma
TTITLE1=vives
TTITLE2=alguien como tú
TTITLE3=vestido blanco
TTITLE4=te amaré
TTITLE5=vuelve
TTITLE6=borincana
TTITLE7=a esa mujer
TTITLE8=silencio
TTITLE9=quiereme cielito lindo
TTITLE10=tremendo problema
TTITLE11=que pequeño es el mundo
TTITLE12=las lomas de mi isla
TTITLE13=amor amargo
TTITLE14=falacia
TTITLE15=la descripcion de la rumba
TTITLE16=ya no te puedo amar
TTITLE17=así vivo yo
TTITLE18=tú sufrirás
EXTD=YEAR: 2004
EXTT0=
EXTT1=
EXTT2=
EXTT3=
EXTT4=
EXTT5=
EXTT6=
EXTT7=
EXTT8=
EXTT9=
EXTT10=
EXTT11=
EXTT12=
EXTT13=
EXTT14=
EXTT15=
EXTT16=
EXTT17=
EXTT18=
PLAYORDER=
